<svg xmlns="http://www.w3.org/2000/svg" xmlns:xlink="http://www.w3.org/1999/xlink" width="750" zoomAndPan="magnify" viewBox="170 145 415 215" height="350" preserveAspectRatio="xMidYMid meet" version="1.0"><defs><g/></defs><rect x="170" y="145" width="415" height="215" fill="#0A0A0A"/><path fill="#1a4a8a" d="M 352.472656 368.242188 C 379.136719 292.894531 405.730469 217.765625 432.347656 142.5625 C 450.410156 142.558594 468.457031 142.558594 486.800781 142.558594 C 485.183594 147.136719 483.59375 151.636719 482 156.136719 C 457.300781 225.933594 432.597656 295.722656 407.960938 365.535156 C 407.210938 367.636719 406.355469 368.292969 404.152344 368.292969 C 387.820312 368.175781 371.464844 368.234375 355.117188 368.234375 L 352.472656 368.234375 " fill-opacity="1" fill-rule="nonzero"/><g fill="#fff" fill-opacity="1"><g transform="translate(175.666732, 348.504909)"><g><path d="M 187.515625 0 L 159.203125 -129.28125 L 104.71875 10.6875 L 49.953125 -129.28125 L 21.90625 0 L 2.671875 0 L 45.140625 -193.671875 L 104.71875 -38.203125 L 164.28125 -193.671875 L 206.484375 0 Z M 187.515625 0 "/></g></g></g><g fill="#fff" fill-opacity="1"><g transform="translate(430.110373, 348.504909)"><g><path d="M 70.515625 -85.75 C 33.472656 -94.289062 14.953125 -110.140625 14.953125 -133.296875 C 14.953125 -150.390625 20.921875 -163.210938 32.859375 -171.765625 C 44.785156 -180.128906 58.765625 -184.3125 74.796875 -184.3125 C 110.234375 -184.3125 131.25 -171.132812 137.84375 -144.78125 L 117.53125 -144.78125 C 113.96875 -160.445312 99.722656 -168.28125 74.796875 -168.28125 C 57.335938 -168.28125 45.140625 -163.117188 38.203125 -152.796875 C 35.523438 -148.878906 34.1875 -143.984375 34.1875 -138.109375 C 34.1875 -126.890625 40.242188 -118.25 52.359375 -112.1875 C 58.054688 -109.164062 70.164062 -105.25 88.6875 -100.4375 C 107.207031 -95.632812 120.648438 -90.289062 129.015625 -84.40625 C 140.597656 -76.21875 146.390625 -64.734375 146.390625 -49.953125 C 146.390625 -31.609375 139.175781 -17.71875 124.75 -8.28125 C 112.632812 -0.445312 97.675781 3.46875 79.875 3.46875 C 39.625 3.46875 16.296875 -11.84375 9.890625 -42.46875 L 32.0625 -42.46875 C 35.4375 -23.238281 51.375 -13.625 79.875 -13.625 C 100.175781 -13.625 114.332031 -19.234375 122.34375 -30.453125 C 125.550781 -34.898438 127.15625 -40.953125 127.15625 -48.609375 C 127.15625 -56.097656 124.21875 -62.242188 118.34375 -67.046875 C 109.96875 -73.816406 94.023438 -80.050781 70.515625 -85.75 Z M 70.515625 -85.75 "/></g></g></g></svg>
