<svg xmlns="http://www.w3.org/2000/svg" viewBox="0 0 100 100" aria-labelledby="mos-favicon-title">
  <title id="mos-favicon-title">Marketing or Science</title>
  <g fill="#2E5C9A">
    <path d="M8 85V15l15 25 15-25v70h-10V40L15 60 2 40v45H8z" transform="translate(0 0)"/>
    <path d="M70 85c-8 0-14-2-18-6s-6-10-6-18c0-8 2-14 6-18s10-6 18-6c6 0 11 2 14 5v10c-3-4-8-6-14-6-5 0-9 2-11 5s-4 7-4 12c0 5 1 9 4 12s6 5 11 5c6 0 11-2 14-6v10c-3 3-8 5-14 5z" transform="translate(10 0)"/>
  </g>
  <path fill="#000000" d="M48 15l10 70h-10L38 15z" transform="rotate(-17 48 50)"/>
</svg>
