<svg xmlns="http://www.w3.org/2000/svg" viewBox="0 0 200 80" aria-labelledby="mos-logo-dark-title">
  <title id="mos-logo-dark-title">Marketing or Science</title>
  <g fill="#FFFFFF">
    <path d="M10 70V10l18 30 18-30v60h-8V32L24 54 10 32v38h-8z" transform="translate(0 0)"/>
    <path d="M140 70c-8 0-14-2-18-6s-6-10-6-18c0-8 2-14 6-18s10-6 18-6c6 0 11 1 15 4v8c-4-3-9-4-15-4-6 0-10 1-13 4s-5 7-5 13c0 6 2 10 5 13s7 4 13 4c6 0 11-1 15-4v8c-4 3-9 4-15 4z" transform="translate(20 0)"/>
  </g>
  <path fill="#FFFFFF" d="M95 10l8 60h-8L87 10z" transform="rotate(-17 91 40)"/>
</svg>
